<svg xmlns="http://www.w3.org/2000/svg" viewBox="0 0 300 64" role="img" aria-label="Q One Media"><g fill="none" stroke="#10c572" stroke-width="1" stroke-linecap="round" stroke-linejoin="round"><rect x="10" y="12" width="42" height="40" rx="4"/><path d="M18 20h26a3 3 0 0 1 3 3v14a3 3 0 0 1-3 3H32l-8 7v-7h-6a3 3 0 0 1-3-3V23a3 3 0 0 1 3-3Z"/><path d="M31 23c1 4 2 5 6 6-4 1-5 2-6 6-1-4-2-5-6-6 4-1 5-2 6-6Z"/></g><text x="66" y="40" fill="#1a2330" font-family="Manrope,Arial,sans-serif" font-size="25" font-weight="700">Q ONE</text><text x="160" y="40" fill="#10c572" font-family="Manrope,Arial,sans-serif" font-size="18" font-weight="700">MEDIA</text></svg>
